<!-- Site favicon using the app icon symbol without the macOS-style background. -->
<svg xmlns="http://www.w3.org/2000/svg" viewBox="0 0 590 550">
  <g fill="none" stroke="#30312f" stroke-linecap="round" stroke-linejoin="round">
    <path d="M282 506.48H105.36C75 506.48 50.16 481.64 50.16 451.28V107.2C50.16 76.84 75 52 105.36 52H458.64C489 52 513.84 76.84 513.84 107.2V272.8"
      stroke-width="40.48" />
    <path
      d="M52.92 427.36L170.68 309.6C178.04 302.24 190 302.24 197.36 309.6L231.4 343.64C240.6 352.84 255.32 352.84 264.52 343.64L350.08 258.08C359.28 248.88 374.92 248.88 384.12 258.08L439.32 313.28"
      stroke-width="40.48" />
    <circle cx="182.64" cy="175.28" r="43.24" stroke-width="40.48" />

    <path d="M366.64 500.96L385.04 434.72L473.36 346.4C489 330.76 514.76 330.76 530.4 346.4C546.04 362.04 546.04 387.8 530.4 403.44L442.08 491.76L366.64 500.96Z"
      stroke-width="29.44" />
    <path d="M385.04 434.72L442.08 491.76" stroke-width="25.76" />
    <path d="M467.84 352.84L524.88 409.88" stroke-width="25.76" />
  </g>
</svg>
